<?xml version="1.0" encoding="UTF-8"?>
<svg version="1.1" xmlns="http://www.w3.org/2000/svg" width="885" height="637">
<path d="M0 0 C292.05 0 584.1 0 885 0 C885 210.21 885 420.42 885 637 C592.95 637 300.9 637 0 637 C0 426.79 0 216.58 0 0 Z " fill="#18181C" transform="translate(0,0)"/>
<path d="M0 0 C2.45680253 -0.00514365 4.91360136 -0.01242828 7.37039185 -0.02168274 C13.32830837 -0.03823349 19.28577815 -0.03160208 25.24365611 -0.01359452 C30.08883663 0.00047973 34.93392812 0.00431398 39.77912712 0.00096321 C40.81684788 0.00024705 40.81684788 0.00024705 41.8755327 -0.00048358 C43.28129827 -0.00151 44.68706381 -0.00256536 46.09282934 -0.00364935 C58.4989636 -0.01219985 70.90493945 0.00440547 83.31103516 0.03417969 C95.3280299 0.06301936 107.34479654 0.07009556 119.36181641 0.0546875 C132.47359237 0.03789859 145.58526024 0.033918 158.69703907 0.05139786 C160.0970824 0.05324209 161.49712575 0.05507682 162.89716911 0.05690193 C163.9302251 0.05827007 163.9302251 0.05827007 164.98415091 0.05966584 C169.81972463 0.06525406 174.65524529 0.06198018 179.49081612 0.05535698 C186.00725359 0.04678515 192.52341246 0.05987412 199.039814 0.08720589 C201.42661633 0.09407332 203.81344932 0.0942054 206.20025063 0.08699036 C209.46728152 0.0782548 212.73331181 0.09432207 216.0002594 0.11643982 C216.93666073 0.10819905 217.87306206 0.09995829 218.83783919 0.0914678 C232.20649019 0.25763244 243.73922973 6.77851333 253.45874023 15.63110352 C257.0581 19.41786263 259.66157008 23.44635591 262.14624023 28.00610352 C262.46810303 28.59391602 262.78996582 29.18172852 263.12158203 29.78735352 C267.73137563 38.79967679 269.21957124 47.93292516 269.15892029 57.96481323 C269.16699859 59.5944901 269.16699859 59.5944901 269.1752401 61.25708973 C269.18945657 64.86869531 269.1824314 68.4799311 269.17529297 72.09155273 C269.18099982 74.69274183 269.1879653 77.29392842 269.1960907 79.89511108 C269.21322574 86.20997458 269.21412975 92.52473833 269.20887779 98.83961903 C269.20482486 103.97607832 269.20629294 109.1125083 269.21162605 114.24896622 C269.21237447 114.98196852 269.2131229 115.71497082 269.213894 116.47018532 C269.21542559 117.95961594 269.21696393 119.44904656 269.21850897 120.93847717 C269.23221491 134.88424408 269.2268098 148.82995477 269.21532375 162.77572037 C269.20539393 175.51181826 269.21833106 188.24777082 269.24225795 200.98384629 C269.26668702 214.08676619 269.27624744 227.1896185 269.26960522 240.2925607 C269.26612137 247.63865519 269.26828965 254.984638 269.28585625 262.33071518 C269.30217523 269.24028864 269.29733749 276.14958093 269.2785511 283.05914688 C269.27487321 285.58863524 269.27795021 288.11814424 269.28843689 290.64761353 C269.36516946 310.69321445 267.65768483 328.06442161 253.22827148 343.43188477 C242.40465667 353.11979437 229.84897933 359.28172578 215.19680786 359.13903809 C214.19202766 359.14527805 213.18724746 359.15151801 212.15201938 359.15794706 C208.81667699 359.17378213 205.4820751 359.16130972 202.14672852 359.14868164 C199.74257992 359.15410702 197.33843466 359.16123201 194.93429565 359.16992188 C189.10065415 359.18622474 183.26724419 359.1838979 177.43359579 359.17227131 C172.68805261 359.16320807 167.94256704 359.16202543 163.19701767 359.16636658 C162.18077505 359.16728598 162.18077505 359.16728598 161.14400228 359.16822395 C159.76731165 359.16950296 158.39062103 359.17079982 157.01393043 359.17211431 C144.12684088 359.18350027 131.23986545 359.17043857 118.35279463 359.14891285 C107.31855398 359.13105175 96.28448174 359.13414161 85.25024414 359.15258789 C72.40984259 359.17404381 59.56954093 359.18239332 46.72912395 359.17013884 C45.35711409 359.16886476 43.98510422 359.16760728 42.61309433 359.16636658 C41.93819733 359.16574948 41.26330032 359.16513237 40.5679519 359.16449657 C35.83451338 359.16105718 31.10113873 359.16684155 26.36771011 359.17628479 C19.98341265 359.18788432 13.59943149 359.17974232 7.215168 359.15670776 C4.87919132 359.15144216 2.54318779 359.15289736 0.20722198 359.16175842 C-19.46725374 359.22947878 -34.88050556 356.83897061 -49.93579102 343.17407227 C-54.99509358 337.84628266 -58.43430483 332.39119642 -61.22875977 325.63110352 C-61.75889726 324.42373047 -61.75889726 324.42373047 -62.29974461 323.19196606 C-66.69560535 311.44067229 -65.78128886 299.07316755 -65.73046875 286.71240234 C-65.73425596 284.08634655 -65.7397593 281.46029275 -65.74684143 278.83424377 C-65.76070809 272.46714453 -65.75326739 266.10024486 -65.73816585 259.73315529 C-65.72122992 252.30766091 -65.7245254 244.88221518 -65.72825993 237.45670744 C-65.73412614 224.2036828 -65.72001409 210.95075344 -65.6953125 197.69775391 C-65.6713808 184.85624625 -65.6643155 172.0148658 -65.67480469 159.17333984 C-65.68622774 145.16357546 -65.68812796 131.15386978 -65.67370659 117.14410609 C-65.67218086 115.64888839 -65.6706605 114.15367069 -65.66914558 112.65845299 C-65.66838777 111.9229134 -65.66762996 111.18737381 -65.66684918 110.42954514 C-65.6621182 105.26087551 -65.66394924 100.09223221 -65.66821098 94.923563 C-65.67366712 87.96228949 -65.66284285 81.00119455 -65.64125633 74.03995323 C-65.6357008 71.48824531 -65.6352118 68.93652048 -65.6402092 66.3848114 C-65.64618329 62.89650941 -65.63361549 59.40874051 -65.61643982 55.92048645 C-65.62244986 54.91570828 -65.62845991 53.91093011 -65.63465208 52.87570411 C-65.50518799 38.37311752 -59.40399031 24.93762736 -49.22875977 14.63110352 C-45.11856283 11.25256468 -40.89809565 8.1971245 -36.22875977 5.63110352 C-35.17050287 4.99890192 -35.17050287 4.99890192 -34.09086704 4.35392857 C-23.34560626 -1.12014607 -11.76141626 -0.06258175 0 0 Z " fill="#18191D" transform="translate(342.228759765625,67.368896484375)"/>
<path d="M0 0 C2.45680253 -0.00514365 4.91360136 -0.01242828 7.37039185 -0.02168274 C13.32830837 -0.03823349 19.28577815 -0.03160208 25.24365611 -0.01359452 C30.08883663 0.00047973 34.93392812 0.00431398 39.77912712 0.00096321 C40.81684788 0.00024705 40.81684788 0.00024705 41.8755327 -0.00048358 C43.28129827 -0.00151 44.68706381 -0.00256536 46.09282934 -0.00364935 C58.4989636 -0.01219985 70.90493945 0.00440547 83.31103516 0.03417969 C95.3280299 0.06301936 107.34479654 0.07009556 119.36181641 0.0546875 C132.47359237 0.03789859 145.58526024 0.033918 158.69703907 0.05139786 C160.0970824 0.05324209 161.49712575 0.05507682 162.89716911 0.05690193 C163.9302251 0.05827007 163.9302251 0.05827007 164.98415091 0.05966584 C169.81972463 0.06525406 174.65524529 0.06198018 179.49081612 0.05535698 C186.00725359 0.04678515 192.52341246 0.05987412 199.039814 0.08720589 C201.42661633 0.09407332 203.81344932 0.0942054 206.20025063 0.08699036 C209.46728152 0.0782548 212.73331181 0.09432207 216.0002594 0.11643982 C216.93666073 0.10819905 217.87306206 0.09995829 218.83783919 0.0914678 C232.20649019 0.25763244 243.73922973 6.77851333 253.45874023 15.63110352 C257.0581 19.41786263 259.66157008 23.44635591 262.14624023 28.00610352 C262.46810303 28.59391602 262.78996582 29.18172852 263.12158203 29.78735352 C267.73137563 38.79967679 269.21957124 47.93292516 269.15892029 57.96481323 C269.16699859 59.5944901 269.16699859 59.5944901 269.1752401 61.25708973 C269.18945657 64.86869531 269.1824314 68.4799311 269.17529297 72.09155273 C269.18099982 74.69274183 269.1879653 77.29392842 269.1960907 79.89511108 C269.21322574 86.20997458 269.21412975 92.52473833 269.20887779 98.83961903 C269.20482486 103.97607832 269.20629294 109.1125083 269.21162605 114.24896622 C269.21237447 114.98196852 269.2131229 115.71497082 269.213894 116.47018532 C269.21542559 117.95961594 269.21696393 119.44904656 269.21850897 120.93847717 C269.23221491 134.88424408 269.2268098 148.82995477 269.21532375 162.77572037 C269.20539393 175.51181826 269.21833106 188.24777082 269.24225795 200.98384629 C269.26668702 214.08676619 269.27624744 227.1896185 269.26960522 240.2925607 C269.26612137 247.63865519 269.26828965 254.984638 269.28585625 262.33071518 C269.30217523 269.24028864 269.29733749 276.14958093 269.2785511 283.05914688 C269.27487321 285.58863524 269.27795021 288.11814424 269.28843689 290.64761353 C269.36516946 310.69321445 267.65768483 328.06442161 253.22827148 343.43188477 C242.40465667 353.11979437 229.84897933 359.28172578 215.19680786 359.13903809 C214.19202766 359.14527805 213.18724746 359.15151801 212.15201938 359.15794706 C208.81667699 359.17378213 205.4820751 359.16130972 202.14672852 359.14868164 C199.74257992 359.15410702 197.33843466 359.16123201 194.93429565 359.16992188 C189.10065415 359.18622474 183.26724419 359.1838979 177.43359579 359.17227131 C172.68805261 359.16320807 167.94256704 359.16202543 163.19701767 359.16636658 C162.18077505 359.16728598 162.18077505 359.16728598 161.14400228 359.16822395 C159.76731165 359.16950296 158.39062103 359.17079982 157.01393043 359.17211431 C144.12684088 359.18350027 131.23986545 359.17043857 118.35279463 359.14891285 C107.31855398 359.13105175 96.28448174 359.13414161 85.25024414 359.15258789 C72.40984259 359.17404381 59.56954093 359.18239332 46.72912395 359.17013884 C45.35711409 359.16886476 43.98510422 359.16760728 42.61309433 359.16636658 C41.93819733 359.16574948 41.26330032 359.16513237 40.5679519 359.16449657 C35.83451338 359.16105718 31.10113873 359.16684155 26.36771011 359.17628479 C19.98341265 359.18788432 13.59943149 359.17974232 7.215168 359.15670776 C4.87919132 359.15144216 2.54318779 359.15289736 0.20722198 359.16175842 C-19.46725374 359.22947878 -34.88050556 356.83897061 -49.93579102 343.17407227 C-54.99509358 337.84628266 -58.43430483 332.39119642 -61.22875977 325.63110352 C-61.75889726 324.42373047 -61.75889726 324.42373047 -62.29974461 323.19196606 C-66.69560535 311.44067229 -65.78128886 299.07316755 -65.73046875 286.71240234 C-65.73425596 284.08634655 -65.7397593 281.46029275 -65.74684143 278.83424377 C-65.76070809 272.46714453 -65.75326739 266.10024486 -65.73816585 259.73315529 C-65.72122992 252.30766091 -65.7245254 244.88221518 -65.72825993 237.45670744 C-65.73412614 224.2036828 -65.72001409 210.95075344 -65.6953125 197.69775391 C-65.6713808 184.85624625 -65.6643155 172.0148658 -65.67480469 159.17333984 C-65.68622774 145.16357546 -65.68812796 131.15386978 -65.67370659 117.14410609 C-65.67218086 115.64888839 -65.6706605 114.15367069 -65.66914558 112.65845299 C-65.66838777 111.9229134 -65.66762996 111.18737381 -65.66684918 110.42954514 C-65.6621182 105.26087551 -65.66394924 100.09223221 -65.66821098 94.923563 C-65.67366712 87.96228949 -65.66284285 81.00119455 -65.64125633 74.03995323 C-65.6357008 71.48824531 -65.6352118 68.93652048 -65.6402092 66.3848114 C-65.64618329 62.89650941 -65.63361549 59.40874051 -65.61643982 55.92048645 C-65.62244986 54.91570828 -65.62845991 53.91093011 -65.63465208 52.87570411 C-65.50518799 38.37311752 -59.40399031 24.93762736 -49.22875977 14.63110352 C-45.11856283 11.25256468 -40.89809565 8.1971245 -36.22875977 5.63110352 C-35.17050287 4.99890192 -35.17050287 4.99890192 -34.09086704 4.35392857 C-23.34560626 -1.12014607 -11.76141626 -0.06258175 0 0 Z M-32.22875977 23.63110352 C-33.24711914 24.33493164 -34.26547852 25.03875977 -35.31469727 25.76391602 C-42.5861128 32.09228107 -46.20478838 39.24351603 -48.22875977 48.63110352 C-48.31891337 50.13974525 -48.35953426 51.65178639 -48.36298084 53.1631155 C-48.36743869 54.07222886 -48.37189653 54.98134221 -48.37648946 55.91800445 C-48.3763051 56.91302304 -48.37612074 57.90804162 -48.37593079 58.93321228 C-48.37960747 59.99326479 -48.38328416 61.0533173 -48.38707227 62.14549261 C-48.398115 65.70963015 -48.401954 69.27373854 -48.40576172 72.83789062 C-48.41202604 75.38878472 -48.41867281 77.93967789 -48.42567444 80.49057007 C-48.44490692 88.15532736 -48.45550467 95.82007953 -48.46440223 103.48485479 C-48.46878851 107.09787589 -48.47415455 110.71089553 -48.4793911 114.32391548 C-48.49640424 126.34147175 -48.51089618 138.35902712 -48.51813984 150.37659359 C-48.52004962 153.49438923 -48.52196997 156.61218486 -48.52392578 159.72998047 C-48.52440952 160.50485888 -48.52489326 161.2797373 -48.52539166 162.07809687 C-48.53368357 174.61740061 -48.55900588 187.15660868 -48.59150646 199.69587069 C-48.62463147 212.58159341 -48.64259362 225.46726762 -48.64578408 238.35303313 C-48.64794446 245.58299507 -48.65662336 252.81281764 -48.68224525 260.04273796 C-48.70631255 266.84959882 -48.70974384 273.65620576 -48.69948387 280.46310043 C-48.69898928 282.95550304 -48.70528681 285.44791811 -48.71903992 287.94028282 C-49.30065053 309.66125024 -49.30065053 309.66125024 -40.11938477 328.78735352 C-30.60068517 338.0700523 -21.27804562 342.10348124 -8.1158905 342.0255127 C-6.6469771 342.03464935 -6.6469771 342.03464935 -5.14838868 342.04397058 C-1.88754275 342.06053606 1.37290993 342.05583392 4.63378906 342.05102539 C6.98015242 342.05836947 9.32651216 342.06695668 11.67286682 342.07669067 C18.03247299 342.09888008 24.39194949 342.10183861 30.75158906 342.09994316 C35.39633886 342.09983846 40.04106194 342.1062873 44.68580514 342.11357072 C45.68179304 342.11512995 45.68179304 342.11512995 46.6979019 342.11672068 C47.36438822 342.1177642 48.03087453 342.11880773 48.71755739 342.11988288 C61.3050914 342.13875942 73.89256706 342.13774306 86.48010936 342.13091356 C97.97547267 342.12534046 109.47061297 342.14615804 120.96592418 342.17927402 C132.79073597 342.21307282 144.61544111 342.22817164 156.44030207 342.223557 C163.07045547 342.22131848 169.7004283 342.22692833 176.33054543 342.25144958 C182.56793125 342.27375691 188.80485386 342.27180509 195.04224205 342.25152206 C197.32543169 342.24811909 199.60865276 342.25317016 201.89179993 342.26750565 C217.16421085 342.35674735 230.08875739 341.78001142 241.77124023 330.63110352 C244.79449462 327.06405812 244.79449462 327.06405812 245.77124023 322.63110352 C246.43124023 322.63110352 247.09124023 322.63110352 247.77124023 322.63110352 C253.15766247 310.32757779 252.32876402 297.60660151 252.27294922 284.44677734 C252.27673668 281.89953819 252.28224024 279.3523011 252.2893219 276.80506897 C252.30179423 270.6304552 252.29575051 264.45610412 252.28064632 258.28150371 C252.26370633 251.07990135 252.26700637 243.87834913 252.2707404 236.67673298 C252.27660597 223.82302149 252.26249704 210.96940826 252.23779297 198.11572266 C252.213861 185.6622347 252.20679622 173.20887792 252.21728516 160.75537109 C252.22870912 147.1675078 252.23060734 133.57970503 252.21618706 119.99184245 C252.21466134 118.54156062 252.21314098 117.09127878 252.21162605 115.64099693 C252.21086824 114.92757022 252.21011042 114.21414352 252.20932965 113.47909782 C252.20459942 108.46672122 252.20642917 103.45437178 252.21069145 98.44199562 C252.21614861 91.69083374 252.20531981 84.93987944 252.1837368 78.18874168 C252.17818246 75.7144367 252.17769117 73.24011427 252.18268967 70.76580811 C252.18866623 67.38259776 252.17609135 63.9999365 252.15892029 60.61677551 C252.16493033 59.64312493 252.17094038 58.66947434 252.17713255 57.66631919 C252.08681675 47.8473369 249.67870662 36.93353701 242.82983398 29.53344727 C235.89791475 23.0837485 228.24889041 17.52946814 218.49913692 17.49129581 C217.6480079 17.48560457 216.79687887 17.47991333 215.91995806 17.47404963 C214.524603 17.47227981 214.524603 17.47227981 213.10105896 17.47047424 C212.10901571 17.46538642 211.11697246 17.4602986 210.09486729 17.45505661 C206.76100016 17.4393242 203.42715472 17.43080492 200.09326172 17.42236328 C197.70660769 17.41282543 195.31995505 17.40293429 192.93330383 17.39271545 C185.76393773 17.36403236 178.59456156 17.34424793 171.42515978 17.32732311 C169.39898453 17.32252551 167.3728098 17.3175425 165.3466351 17.31251788 C152.7550008 17.2815431 140.16336182 17.25486758 127.5717001 17.2380991 C124.65636118 17.23414982 121.74102234 17.2301468 118.82568359 17.22607422 C118.10112101 17.22506586 117.37655843 17.2240575 116.6300394 17.22301858 C104.90087456 17.20602316 93.17192112 17.16492512 81.4428594 17.11405123 C69.39109807 17.06220925 57.33944528 17.03314819 45.2875734 17.02590221 C38.52483498 17.02124815 31.76244271 17.00658362 24.99981499 16.96615791 C18.63444351 16.92925563 12.26966188 16.92089431 5.90420341 16.93416405 C3.57220092 16.93411016 1.24017204 16.92383878 -1.09173203 16.90241241 C-17.71820782 16.43685001 -17.71820782 16.43685001 -32.22875977 23.63110352 Z " fill="#FAFAFA" transform="translate(342.228759765625,67.368896484375)"/>
<path d="M0 0 C0.00142502 0.80607193 0.00285004 1.61214386 0.00431824 2.44264221 C0.02227959 10.10539989 0.06427601 17.76749748 0.13209057 25.42996311 C0.16612436 29.36769014 0.19143321 33.30503897 0.19555664 37.24291992 C0.1998911 41.0558678 0.22876971 44.86796594 0.27343178 48.6806469 C0.28624492 50.12235467 0.29077318 51.56416501 0.28615379 53.00592232 C0.26333289 62.30674264 1.57903416 70.1248933 4.83345032 78.79722595 C5.83752351 81.55391913 6.52337232 84.1137204 7 87 C7.66 87 8.32 87 9 87 C10.19619303 88.63089977 11.33103225 90.30694332 12.4375 92 C19.34587585 101.69662123 30.71398291 109.73475189 42.41796875 112.58984375 C44.96558816 112.9013617 47.43289909 112.97863716 50 113 C51.84271484 113.07347656 51.84271484 113.07347656 53.72265625 113.1484375 C68.7813506 113.61867995 80.44077442 110.25020258 93 102 C95.67848546 99.32151454 95.30504006 97.86029139 95.4140625 94.1171875 C95.44967285 93.06644043 95.4852832 92.01569336 95.52197266 90.93310547 C95.57297119 88.92434326 95.57297119 88.92434326 95.625 86.875 C95.74875 82.62625 95.8725 78.3775 96 74 C81.48 74 66.96 74 52 74 C52 66.41 52 58.82 52 51 C75.1 51 98.2 51 122 51 C122.20625 60.714375 122.4125 70.42875 122.625 80.4375 C122.71604004 83.48798584 122.80708008 86.53847168 122.90087891 89.68139648 C122.93010525 92.11958426 122.9555827 94.55782108 122.9765625 96.99609375 C123.02772217 98.24555786 123.07888184 99.49502197 123.1315918 100.78234863 C123.1368029 106.03045527 123.12752336 109.56246029 119.81529236 113.78540039 C117.30866192 116.06485226 114.77780669 118.06487328 112 120 C110.98550781 120.78632813 109.97101563 121.57265625 108.92578125 122.3828125 C87.635464 136.57635734 63.86123783 142.85279508 38.375 137.8125 C31.95745039 136.18702746 26.01732333 133.72498785 20 131 C19.22140625 130.70480469 18.4428125 130.40960938 17.640625 130.10546875 C2.5072597 124.2292152 -11.90002647 108.40107946 -19 94 C-28.57051523 71.20043464 -28.93575577 47.49535376 -19.6484375 24.6796875 C-17.08164087 19.07288593 -7.00562602 0 0 0 Z " fill="#F9F9FA" transform="translate(414,216)"/>
<path d="M0 0 C48.84 0 97.68 0 148 0 C148 7.92 148 15.84 148 24 C127.87 24 107.74 24 87 24 C87.5113741 35.31135622 87.5113741 35.31135622 88.17114258 46.61425781 C88.41664214 52.98480219 88.633943 58.63165488 84.23291016 63.63647461 C81.55063332 66.24683513 78.64421965 68.47653403 75.63052368 70.6872406 C70.82237895 74.558351 65.9487989 80.1536033 64 86 C63.01 86.33 62.02 86.66 61 87 C61 66.21 61 45.42 61 24 C40.87 24 20.74 24 0 24 C0 16.08 0 8.16 0 0 Z " fill="#FAFBFB" transform="translate(327,141)"/>
<path d="M0 0 C1.57587891 0.72123047 1.57587891 0.72123047 3.18359375 1.45703125 C9.63187189 4.63859466 15.01149075 8.38079474 20.3125 13.1875 C20.88218506 13.69869385 21.45187012 14.2098877 22.03881836 14.73657227 C23.61328125 16.23046875 23.61328125 16.23046875 26 19 C26 23 26 23 24.62304688 24.83105469 C23.99462891 25.43852539 23.36621094 26.04599609 22.71875 26.671875 C22.04199219 27.33574219 21.36523438 27.99960938 20.66796875 28.68359375 C19.95253906 29.36550781 19.23710938 30.04742187 18.5 30.75 C17.78457031 31.44738281 17.06914063 32.14476562 16.33203125 32.86328125 C14.56331656 34.58483021 12.78595695 36.2963744 11 38 C7.16836482 36.68724847 4.81736869 35.13687989 1.9375 32.3125 C-11.31281005 20.26676359 -25.65614583 17.06327854 -43.06835938 17.88330078 C-56.15883955 18.67415638 -65.28927335 23.87104651 -74.7109375 32.8515625 C-77.02863917 35.02687976 -79.51789991 37.01431993 -82 39 C-82 27.78 -82 16.56 -82 5 C-55.04651048 -9.06269018 -28.35702539 -13.35524422 0 0 Z " fill="#F9F9F9" transform="translate(507,202)"/>
<path d="M0 0 C8.27539035 -0.11587901 16.55044147 -0.20470646 24.82644272 -0.25906086 C28.66941749 -0.28514926 32.511837 -0.32053148 36.35449219 -0.37719727 C40.06333109 -0.43154711 43.77163618 -0.46142624 47.48084259 -0.47438622 C48.89549413 -0.48362104 50.31011661 -0.50165527 51.72454071 -0.52865028 C53.70636979 -0.56496828 55.6887367 -0.5670426 57.67089844 -0.56762695 C58.79896912 -0.57873001 59.92703979 -0.58983307 61.08929443 -0.60127258 C64 0 64 0 66.31378174 2.38581848 C67.88194046 4.81696968 69.21451929 7.19303613 70.4375 9.8125 C72.3962165 13.88200725 74.5798702 17.64915895 77.08203125 21.40625 C78 23 78 23 78 25 C78.66 25 79.32 25 80 25 C80.37125 24.01 80.37125 24.01 80.75 23 C82.32499938 19.22000149 84.05209912 15.59747459 86 12 C86.52207031 10.94941406 87.04414063 9.89882813 87.58203125 8.81640625 C89.49303241 5.40074313 91.16405204 2.70764455 94 0 C98.50129905 -1.01060093 102.47075043 -0.74566914 107 0 C105.35993213 4.48632322 103.15394254 8.54072587 100.8125 12.6875 C100.41466309 13.39503418 100.01682617 14.10256836 99.60693359 14.83154297 C96.83768153 19.69075478 93.85883514 24.3048438 90.5078125 28.7890625 C86.13468922 35.20146607 85.492611 40.27946184 85.3125 47.875 C85.27833984 48.84953125 85.24417969 49.8240625 85.20898438 50.828125 C85.12696658 53.21835798 85.06179536 55.60915874 85 58 C80.71 58 76.42 58 72 58 C72.020625 56.63488281 72.04125 55.26976562 72.0625 53.86328125 C72.02359649 42.67238054 71.24526017 34.94087425 64.28564453 25.77685547 C61.64612511 22.12884515 59.39183299 18.22507101 57.0625 14.375 C56.57797363 13.59165283 56.09344727 12.80830566 55.59423828 12.0012207 C55.14161621 11.26605225 54.68899414 10.53088379 54.22265625 9.7734375 C53.61562866 8.78996338 53.61562866 8.78996338 52.99633789 7.78662109 C52 6 52 6 51 3 C50.67 5.97 50.34 8.94 50 12 C44.06 12 38.12 12 32 12 C32 27.18 32 42.36 32 58 C27.38 58 22.76 58 18 58 C18 42.49 18 26.98 18 11 C12.06 11 6.12 11 0 11 C0 7.37 0 3.74 0 0 Z " fill="#ECECEC" transform="translate(288,499)"/>
<path d="M0 0 C4.888125 -0.0825 9.77625 -0.165 14.8125 -0.25 C16.33077393 -0.28641602 17.84904785 -0.32283203 19.41333008 -0.36035156 C28.07035262 -0.4305911 37.14335816 -0.26599329 43.9934082 5.75097656 C49.21850786 11.36712537 50.42391591 16.81992948 50.2421875 24.3515625 C49.76326114 29.58885396 47.57870875 32.66425038 43.875 36.1875 C34.79427021 43.33576044 25.03531651 42.26067677 14 42 C14 47.28 14 52.56 14 58 C9.38 58 4.76 58 0 58 C0 38.86 0 19.72 0 0 Z " fill="#F5F5F5" transform="translate(401,499)"/>
<path d="M0 0 C12 0 12 0 14.67578125 2.125 C15.21589844 3.07375 15.75601562 4.0225 16.3125 5 C16.93898438 6.010625 17.56546875 7.02125 18.2109375 8.0625 C18.80132812 9.031875 19.39171875 10.00125 20 11 C21.10860834 12.36444104 22.25249107 13.70136008 23.4375 15 C28.58187122 20.72518732 33.72712825 26.59069238 38 33 C38.33 22.11 38.66 11.22 39 0 C43.62 0 48.24 0 53 0 C53 19.14 53 38.28 53 58 C41 58 41 58 37.15234375 54.73828125 C36.04330591 53.29094363 34.97262417 51.81358929 33.9375 50.3125 C32.76551019 48.75301328 31.59231779 47.19442966 30.41796875 45.63671875 C29.84868652 44.85603027 29.2794043 44.0753418 28.69287109 43.27099609 C26.19686434 39.92258899 23.48645712 36.77736555 20.75 33.625 C18.34594639 30.82745492 16.05105872 28.07658808 14 25 C13.67 35.89 13.34 46.78 13 58 C8.71 58 4.42 58 0 58 C0 38.86 0 19.72 0 0 Z " fill="#F5F5F5" transform="translate(488,499)"/>
<path d="M0 0 C4.62 0 9.24 0 14 0 C14 7.59 14 15.18 14 23 C22.25 23 30.5 23 39 23 C39 15.41 39 7.82 39 0 C43.62 0 48.24 0 53 0 C53 19.14 53 38.28 53 58 C48.38 58 43.76 58 39 58 C39 50.41 39 42.82 39 35 C30.75 35 22.5 35 14 35 C14 42.59 14 50.18 14 58 C9.38 58 4.76 58 0 58 C0 38.86 0 19.72 0 0 Z " fill="#F1F2F2" transform="translate(150,499)"/>
<path d="M0 0 C3.63045539 1.99782456 6.71164607 4.5078656 9.75 7.3125 C8.37903502 11.42539495 6.27399633 12.87281023 2.75 15.3125 C-0.43870457 15.3125 -1.9004904 14.54930325 -4.52734375 12.76953125 C-7.69779307 11.07286325 -9.678493 10.94077858 -13.25 11 C-14.260625 11.00386719 -15.27125 11.00773437 -16.3125 11.01171875 C-20.08021639 11.39750886 -22.98251337 12.13463364 -25.796875 14.75 C-30.60392323 20.99291978 -31.24073081 25.45398472 -30.25 33.3125 C-28.592912 37.57445696 -26.47647932 41.16552581 -22.31640625 43.30859375 C-16.28645589 45.01296568 -10.33058284 44.52861657 -4.25 43.3125 C-4.25 37.7025 -4.25 32.0925 -4.25 26.3125 C0.37 26.3125 4.99 26.3125 9.75 26.3125 C11.27102645 47.1674627 11.27102645 47.1674627 7.76953125 52.10546875 C5.1036622 53.67433874 2.74416758 54.56284915 -0.25 55.3125 C-1.3225 55.76625 -2.395 56.22 -3.5 56.6875 C-13.5710926 58.36601543 -22.85478905 58.40977074 -31.5546875 52.8359375 C-38.35568436 47.95259877 -42.56782795 42.24290481 -45.25 34.3125 C-46.51817047 24.54514856 -45.26843303 16.26050698 -39.25 8.3125 C-28.69021881 -1.3827377 -13.83805226 -5.85273785 0 0 Z " fill="#F1F2F1" transform="translate(682.25,500.6875)"/>
<path d="M0 0 C2.1349501 1.19686596 3.94724472 2.42002874 5.8203125 3.98828125 C7.15251918 4.98978169 8.4855755 5.99015555 9.8203125 6.98828125 C9.24455586 10.34078826 8.22724987 11.92646754 5.7578125 14.23828125 C5.20996094 14.7590625 4.66210938 15.27984375 4.09765625 15.81640625 C3.67613281 16.203125 3.25460937 16.58984375 2.8203125 16.98828125 C0.56222731 15.85923865 -1.55703055 14.74300827 -3.6796875 13.36328125 C-9.33964369 11.13972703 -15.54889963 10.86082607 -21.40625 12.6796875 C-25.77352071 14.90049112 -27.43288461 17.54934685 -29.1796875 21.98828125 C-29.51348425 24.79604007 -29.46670328 27.54111577 -29.3671875 30.36328125 C-29.35365234 31.09933594 -29.34011719 31.83539062 -29.32617188 32.59375 C-29.29113619 34.39224868 -29.23734038 36.19036547 -29.1796875 37.98828125 C-28.5196875 37.98828125 -27.8596875 37.98828125 -27.1796875 37.98828125 C-26.6434375 38.77203125 -26.1071875 39.55578125 -25.5546875 40.36328125 C-22.46361763 43.7797269 -19.63457086 44.61704097 -15.1796875 44.98828125 C-11.13331568 44.84943516 -7.20959342 44.44622511 -3.1796875 43.98828125 C-3.1796875 38.37828125 -3.1796875 32.76828125 -3.1796875 26.98828125 C1.1103125 26.98828125 5.4003125 26.98828125 9.8203125 26.98828125 C9.8203125 34.90828125 9.8203125 42.82828125 9.8203125 50.98828125 C7.9434375 51.95765625 6.0665625 52.92703125 4.1328125 53.92578125 C2.54919922 54.74369141 2.54919922 54.74369141 0.93359375 55.578125 C-6.53174439 58.95953914 -15.88427008 59.29249385 -23.8125 57.33984375 C-31.13253662 54.35571732 -37.87986246 48.6033967 -42.1796875 41.98828125 C-45.09314948 33.39514611 -46.22183538 22.17633112 -42.28125 13.6875 C-33.17081998 -0.36582291 -15.64968026 -4.97944372 0 0 Z " fill="#F2F2F2" transform="translate(595.1796875,500.01171875)"/>
<path d="M0 0 C14.19 0 28.38 0 43 0 C43 3.63 43 7.26 43 11 C33.43 11 23.86 11 14 11 C14 14.63 14 18.26 14 22 C22.58 22 31.16 22 40 22 C40 25.63 40 29.26 40 33 C31.09 33 22.18 33 13 33 C13 37.29 13 41.58 13 46 C23.23 46 33.46 46 44 46 C44 49.63 44 53.26 44 57 C29.48 57 14.96 57 0 57 C0 38.19 0 19.38 0 0 Z " fill="#F4F4F4" transform="translate(216,500)"/>
<path d="M0 0 C4.29 0 8.58 0 13 0 C13.01458252 1.05912598 13.02916504 2.11825195 13.04418945 3.20947266 C13.10237327 7.15707342 13.17960407 11.10411571 13.26245117 15.05126953 C13.29560636 16.75625512 13.32366737 18.46134798 13.34643555 20.16650391 C13.38015568 22.62448634 13.43247794 25.08149406 13.48828125 27.5390625 C13.49467117 28.29555084 13.5010611 29.05203918 13.50764465 29.83145142 C13.63816903 34.58113091 14.43031618 37.86526213 17 42 C19.87982595 44.39985495 21.63889964 44.95987774 25.375 45.375 C29.52212232 44.94598735 32.37401208 44.06183627 36 42 C38.42597302 37.70583593 38.34317068 33.22659135 38.4140625 28.41796875 C38.43342865 27.60378983 38.4527948 26.7896109 38.4727478 25.95075989 C38.53228752 23.36311148 38.57882583 20.77541797 38.625 18.1875 C38.6632034 16.42771551 38.7022565 14.66794926 38.7421875 12.90820312 C38.83796782 8.60561766 38.92209285 4.3029447 39 0 C43.29 0 47.58 0 52 0 C52.09935879 5.69249459 52.17169923 11.38447718 52.21972656 17.07763672 C52.23976141 19.01164552 52.26699729 20.94559435 52.30175781 22.87939453 C52.35063571 25.66974743 52.37305019 28.45929501 52.390625 31.25 C52.41127014 32.10553467 52.43191528 32.96106934 52.45318604 33.8425293 C52.45567991 40.61324133 50.71678257 45.77659131 46.32421875 50.98828125 C37.50905849 58.12035602 30.32044146 58.92564936 19 58 C16.15009102 57.33678341 14.57068255 56.53147046 12 55 C10.96875 54.46375 9.9375 53.9275 8.875 53.375 C5.00400141 50.17721856 3.1642434 46.46644654 1 42 C0.67 41.34 0.34 40.68 0 40 C-0.08705146 37.01029711 -0.11550145 34.04415045 -0.09765625 31.0546875 C-0.0962413 30.1696756 -0.09482635 29.2846637 -0.09336853 28.37283325 C-0.0877614 25.54018809 -0.07520771 22.70762136 -0.0625 19.875 C-0.05748592 17.95703239 -0.05292285 16.03906354 -0.04882812 14.12109375 C-0.03778966 9.41403218 -0.02052025 4.7070294 0 0 Z " fill="#F8F9F9" transform="translate(703,500)"/>
<path d="M0 0 C5.2451288 -0.79906259 9.77936401 -1.12664181 15 0 C18.8442544 3.81008325 20.84002023 8.12190616 23 13 C23.78642822 14.54434545 24.57699376 16.0866053 25.375 17.625 C25.91125 18.73875 26.4475 19.8525 27 21 C27.66 21.99 28.32 22.98 29 24 C33.39760074 18.00208893 37.2790509 11.93440992 40.73828125 5.34765625 C42 3 42 3 44 0 C47.2578125 -0.29296875 47.2578125 -0.29296875 51.125 -0.1875 C53.04699219 -0.14689453 53.04699219 -0.14689453 55.0078125 -0.10546875 C55.99523437 -0.07066406 56.98265625 -0.03585937 58 0 C57.70351563 0.5878125 57.40703125 1.175625 57.1015625 1.78125 C56.16245765 3.67278034 55.2643134 5.58455576 54.375 7.5 C52.01536933 12.24567511 49.01253604 16.50856854 46.03515625 20.8828125 C43.4923051 24.77762097 41.28988437 28.80210034 39.12890625 32.91796875 C38 35 38 35 37 36 C36.84285346 37.63256758 36.74914586 39.27135338 36.68359375 40.91015625 C36.62075195 42.39418945 36.62075195 42.39418945 36.55664062 43.90820312 C36.51732422 44.94912109 36.47800781 45.99003906 36.4375 47.0625 C36.37272461 48.62967773 36.37272461 48.62967773 36.30664062 50.22851562 C36.20018895 52.81883972 36.09955692 55.40940175 36 58 C31.38 58 26.76 58 22 58 C22.020625 56.64648438 22.04125 55.29296875 22.0625 53.8984375 C22.01461119 41.19855843 20.44593692 33.35229572 13 23 C11.57920063 20.87776095 10.16238323 18.7528494 8.75 16.625 C8.09386719 15.65949219 7.43773437 14.69398438 6.76171875 13.69921875 C3.92508377 9.35306627 1.64533063 4.93599189 0 0 Z " fill="#F2F2F3" transform="translate(761,499)"/>
<path d="M0 0 C16.5 0 33 0 50 0 C50 3.96 50 7.92 50 12 C44.06 12 38.12 12 32 12 C32 27.18 32 42.36 32 58 C27.38 58 22.76 58 18 58 C18 42.82 18 27.64 18 12 C12.06 12 6.12 12 0 12 C0 8.04 0 4.08 0 0 Z " fill="#F0F0F0" transform="translate(93,499)"/>
<path d="M0 0 C16.17 0 32.34 0 49 0 C49 3.3 49 6.6 49 10 C43.06 10 37.12 10 31 10 C31 25.51 31 41.02 31 57 C26.71 57 22.42 57 18 57 C18 41.49 18 25.98 18 10 C12.06 10 6.12 10 0 10 C0 6.7 0 3.4 0 0 Z " fill="#FBFBFB" transform="translate(288,500)"/>
<path d="M0 0 C4.62 0 9.24 0 14 0 C14 19.14 14 38.28 14 58 C9.38 58 4.76 58 0 58 C0 38.86 0 19.72 0 0 Z " fill="#FDFDFD" transform="translate(461,499)"/>
<path d="M0 0 C2.536875 -0.061875 5.07375 -0.12375 7.6875 -0.1875 C8.47729248 -0.21481201 9.26708496 -0.24212402 10.08081055 -0.27026367 C14.60318145 -0.32344113 17.43303549 0.18325747 21 3 C22.72515631 6.45031261 22.49677924 10.22716304 22 14 C19.80168636 17.03215675 18.55036806 17.81654398 15 19 C12.42502932 19.07035439 9.88550071 19.0934934 7.3125 19.0625 C3.6928125 19.0315625 3.6928125 19.0315625 0 19 C0 12.73 0 6.46 0 0 Z " fill="#16161A" transform="translate(415,511)"/>
<path d="M0 0 C4.62 0 9.24 0 14 0 C14 19.14 14 38.28 14 58 C9.38 58 4.76 58 0 58 C0 57.67 0 57.34 0 57 C3.96 57 7.92 57 12 57 C12 38.85 12 20.7 12 2 C9.03 2 6.06 2 3 2 C2.01 1.34 1.02 0.68 0 0 Z " fill="#C6C7C8" transform="translate(461,499)"/>
<path d="M0 0 C2.29109597 -0.08075665 4.58299267 -0.13907731 6.875 -0.1875 C8.78925781 -0.23970703 8.78925781 -0.23970703 10.7421875 -0.29296875 C11.81726563 -0.19628906 12.89234375 -0.09960938 14 0 C14.66 0.99 15.32 1.98 16 3 C16.66 2.34 17.32 1.68 18 1 C18 20.14 18 39.28 18 59 C17.67 59 17.34 59 17 59 C16.97494385 57.89599854 16.9498877 56.79199707 16.92407227 55.65454102 C16.82924637 51.52260549 16.72921543 47.39080898 16.62768555 43.2590332 C16.58461884 41.47749098 16.54292654 39.69591493 16.50268555 37.91430664 C16.44429107 35.33990323 16.3808037 32.76566568 16.31640625 30.19140625 C16.29969376 29.40665421 16.28298126 28.62190216 16.26576233 27.81336975 C16.12614924 22.49273992 15.64636559 17.28363619 15 12 C12.03 11.505 12.03 11.505 9 11 C10.875 3.25 10.875 3.25 12 1 C8.04 1 4.08 1 0 1 C0 0.67 0 0.34 0 0 Z " fill="#0A0A0D" transform="translate(383,498)"/>
<path d="M0 0 C0.33 0 0.66 0 1 0 C1 7.59 1 15.18 1 23 C-1.9615696 24.4807848 -4.83506295 24.35314037 -8.125 24.5625 C-9.40632813 24.64628906 -10.68765625 24.73007812 -12.0078125 24.81640625 C-12.99523437 24.87699219 -13.98265625 24.93757812 -15 25 C-16.01044795 21.96865616 -16.05032949 20.25604057 -15.87890625 17.11328125 C-15.83056641 16.17548828 -15.78222656 15.23769531 -15.73242188 14.27148438 C-15.67634766 13.29501953 -15.62027344 12.31855469 -15.5625 11.3125 C-15.51029297 10.32443359 -15.45808594 9.33636719 -15.40429688 8.31835938 C-15.27464694 5.87858324 -15.13968258 3.43921895 -15 1 C-14.67 1 -14.34 1 -14 1 C-14 7.93 -14 14.86 -14 22 C-9.71 22 -5.42 22 -1 22 C-1.01160156 20.49566406 -1.02320313 18.99132812 -1.03515625 17.44140625 C-1.04453249 15.48177207 -1.05363287 13.52213655 -1.0625 11.5625 C-1.07087891 10.56927734 -1.07925781 9.57605469 -1.08789062 8.55273438 C-1.09111328 7.60849609 -1.09433594 6.66425781 -1.09765625 5.69140625 C-1.10289307 4.81685791 -1.10812988 3.94230957 -1.11352539 3.04125977 C-1 1 -1 1 0 0 Z " fill="#2F2F31" transform="translate(374,535)"/>
<path d="M0 0 C14.52 0 29.04 0 44 0 C44 0.66 44 1.32 44 2 C41.24401248 2.91866251 39.80372349 3.101683 36.98754883 3.02172852 C36.18694534 3.00163223 35.38634186 2.98153595 34.56147766 2.96083069 C33.70201035 2.93379562 32.84254303 2.90676056 31.95703125 2.87890625 C31.0734343 2.85529526 30.18983734 2.83168427 29.27946472 2.80735779 C26.45697742 2.73077765 23.6347684 2.64672891 20.8125 2.5625 C18.89910216 2.50927366 16.98569074 2.4565333 15.07226562 2.40429688 C10.38133416 2.2751701 5.69063861 2.13934467 1 2 C0.67 1.34 0.34 0.68 0 0 Z " fill="#08080A" transform="translate(216,557)"/>
<path d="M0 0 C5.28 0 10.56 0 16 0 C16.66 1.32 17.32 2.64 18 4 C17.01 5.485 17.01 5.485 16 7 C15.6723603 9.40299777 15.6723603 9.40299777 15.68115234 12.11401367 C15.66128265 13.15486618 15.64141296 14.19571869 15.62094116 15.26811218 C15.60361435 16.95104118 15.60361435 16.95104118 15.5859375 18.66796875 C15.56657135 19.81791824 15.5472052 20.96786774 15.5272522 22.15266418 C15.46740239 25.83086699 15.42104894 29.509101 15.375 33.1875 C15.33682524 35.67905022 15.29777381 38.17058717 15.2578125 40.66210938 C15.16169638 46.77462194 15.07666462 52.88721421 15 59 C14.67 59 14.34 59 14 59 C14 39.86 14 20.72 14 1 C9.38 1 4.76 1 0 1 C0 0.67 0 0.34 0 0 Z " fill="#000102" transform="translate(189,498)"/>
<path d="M0 0 C0.33 0.99 0.66 1.98 1 3 C0.01 2.67 -0.98 2.34 -2 2 C-1.34 2 -0.68 2 0 2 C0 1.34 0 0.68 0 0 Z M-4 1 C-1.51501615 4.72747578 -1.83380879 7.4414019 -2.0234375 11.73046875 C-2.04846344 12.48088943 -2.07348938 13.23131012 -2.09927368 14.00447083 C-2.18139066 16.39927914 -2.27801052 18.79325239 -2.375 21.1875 C-2.43324817 22.81181494 -2.49055127 24.43616407 -2.546875 26.06054688 C-2.68695674 30.04084414 -2.84004683 34.02045375 -3 38 C-2.01 38.33 -1.02 38.66 0 39 C0 39.66 0 40.32 0 41 C-0.99 40.67 -1.98 40.34 -3 40 C-3.66 41.32 -4.32 42.64 -5 44 C-6.27000461 41.45999077 -5.72800184 40.67706965 -5 38 C-4.84889043 35.16611169 -4.74368466 32.35139452 -4.68359375 29.515625 C-4.66281265 28.70003113 -4.64203156 27.88443726 -4.62062073 27.04412842 C-4.55538703 24.44616895 -4.49636232 21.84811087 -4.4375 19.25 C-4.39428986 17.485667 -4.35067478 15.72134387 -4.30664062 13.95703125 C-4.19973255 9.63812116 -4.09839173 5.31911216 -4 1 Z " fill="#040406" transform="translate(760,499)"/>
<path d="M0 0 C0.33 0 0.66 0 1 0 C1 6.93 1 13.86 1 21 C3.97 21 6.94 21 10 21 C11.32 21.66 12.64 22.32 14 23 C9.38 23.33 4.76 23.66 0 24 C-1.01044795 20.96865616 -1.05032949 19.25604057 -0.87890625 16.11328125 C-0.83056641 15.17548828 -0.78222656 14.23769531 -0.73242188 13.27148438 C-0.67634766 12.29501953 -0.62027344 11.31855469 -0.5625 10.3125 C-0.51029297 9.32443359 -0.45808594 8.33636719 -0.40429688 7.31835938 C-0.27464694 4.87858324 -0.13968258 2.43921895 0 0 Z " fill="#353536" transform="translate(359,536)"/>
<path d="M0 0 C0 2.62113708 -0.31292445 4.50935112 -1 7 C-1.99 7 -2.98 7 -4 7 C-4.66 8.32 -5.32 9.64 -6 11 C-7.98 11 -9.96 11 -12 11 C-12 10.01 -12 9.02 -12 8 C-12.99 8 -13.98 8 -15 8 C-14.67 7.01 -14.34 6.02 -14 5 C-12.68 5.99 -11.36 6.98 -10 8 C-5.70761377 6.34908222 -3.1206085 3.26245434 0 0 Z " fill="#101114" transform="translate(606,508)"/>
<path d="M0 0 C0.66 0 1.32 0 2 0 C1.67 0.99 1.34 1.98 1 3 C0.91602843 5.35680213 0.89271813 7.71594081 0.90234375 10.07421875 C0.9037587 10.7580513 0.90517365 11.44188385 0.90663147 12.1464386 C0.91222124 14.32683722 0.92477178 16.50713251 0.9375 18.6875 C0.94251633 20.16731622 0.947079 21.64713406 0.95117188 23.12695312 C0.96218729 26.75133557 0.97944488 30.3756577 1 34 C0.01 34.495 0.01 34.495 -1 35 C-1.0246519 30.17619198 -1.04283693 25.35242033 -1.05493164 20.52856445 C-1.05997174 18.88630536 -1.06680378 17.24405077 -1.07543945 15.60180664 C-1.08751926 13.24624521 -1.09323139 10.89074291 -1.09765625 8.53515625 C-1.10281754 7.79660904 -1.10797882 7.05806183 -1.11329651 6.2971344 C-1.1134925 4.53101912 -1.06194719 2.76502854 -1 1 C-0.67 0.67 -0.34 0.34 0 0 Z " fill="#D2D2D4" transform="translate(426,206)"/>
<path d="M0 0 C0.66 0.33 1.32 0.66 2 1 C1.67 1.99 1.34 2.98 1 4 C1.66 4.33 2.32 4.66 3 5 C3 5.66 3 6.32 3 7 C2.34 7 1.68 7 1 7 C0.67 7.66 0.34 8.32 0 9 C-0.66 8.67 -1.32 8.34 -2 8 C-1.67 6.35 -1.34 4.7 -1 3 C-5.62 3 -10.24 3 -15 3 C-15 2.67 -15 2.34 -15 2 C-10.05 2 -5.1 2 0 2 C0 1.34 0 0.68 0 0 Z " fill="#0C0C0E" transform="translate(820,496)"/>
<path d="M0 0 C2.96175123 0.61277612 4.38058783 1.25372522 7 3 C7.66 2.67 8.32 2.34 9 2 C8.67 3.65 8.34 5.3 8 7 C7.01 7.33 6.02 7.66 5 8 C0 2.25 0 2.25 0 0 Z " fill="#212124" transform="translate(299,390)"/>
<path d="M0 0 C2.62187494 1.04874998 3.79371361 1.64931313 5.25 4.125 C5.4975 4.74375 5.745 5.3625 6 6 C0.25 7.125 0.25 7.125 -2 6 C-1.125 1.125 -1.125 1.125 0 0 Z " fill="#29292B" transform="translate(582,96)"/>
<path d="M0 0 C2.475 0.99 2.475 0.99 5 2 C5 3.32 5 4.64 5 6 C4.21625 5.814375 3.4325 5.62875 2.625 5.4375 C0.02910225 4.74037734 0.02910225 4.74037734 -2 6 C-1.125 1.125 -1.125 1.125 0 0 Z " fill="#1E1D22" transform="translate(659,512)"/>
<path d="M0 0 C5.28 0 10.56 0 16 0 C16.66 1.32 17.32 2.64 18 4 C17.01 4.99 16.02 5.98 15 7 C15 5.02 15 3.04 15 1 C10.05 1 5.1 1 0 1 C0 0.67 0 0.34 0 0 Z " fill="#0B0C0D" transform="translate(189,498)"/>
<path d="M0 0 C0.66 0.33 1.32 0.66 2 1 C-0.21027154 4.37357234 -2.46399535 6.08864614 -6 8 C-6 7.34 -6 6.68 -6 6 C-6.66 5.34 -7.32 4.68 -8 4 C-6.71349294 3.30289269 -5.42059335 2.61757124 -4.125 1.9375 C-3.40570312 1.55464844 -2.68640625 1.17179688 -1.9453125 0.77734375 C-1.30335938 0.52082031 -0.66140625 0.26429688 0 0 Z " fill="#0E0F11" transform="translate(602,552)"/>
<path d="M0 0 C0 2 0 2 -1.6796875 3.69140625 C-2.40414062 4.30886719 -3.12859375 4.92632812 -3.875 5.5625 C-4.59429688 6.18253906 -5.31359375 6.80257813 -6.0546875 7.44140625 C-8 9 -8 9 -10 10 C-8.71596412 5.50587442 -5.23012555 0 0 0 Z " fill="#DDDDDF" transform="translate(651,504)"/>
<path d="M0 0 C0.66 0.33 1.32 0.66 2 1 C1.57847656 1.38671875 1.15695312 1.7734375 0.72265625 2.171875 C-0.09912109 2.95304688 -0.09912109 2.95304688 -0.9375 3.75 C-1.48277344 4.26046875 -2.02804687 4.7709375 -2.58984375 5.296875 C-4.16044692 7.19378076 -4.58731286 8.59701161 -5 11 C-5.66 11 -6.32 11 -7 11 C-7.33 10.01 -7.66 9.02 -8 8 C-5.36 5.36 -2.72 2.72 0 0 Z " fill="#0D0C0F" transform="translate(435,231)"/>
<path d="M0 0 C0.66 0.33 1.32 0.66 2 1 C2.08096803 2.45742463 2.13917774 3.91612807 2.1875 5.375 C2.22230469 6.18710937 2.25710938 6.99921875 2.29296875 7.8359375 C2.19628906 8.55007813 2.09960938 9.26421875 2 10 C1.01 10.66 0.02 11.32 -1 12 C-1 11.34 -1 10.68 -1 10 C-1.66 9.67 -2.32 9.34 -3 9 C-2.34 9 -1.68 9 -1 9 C-0.67 6.03 -0.34 3.06 0 0 Z " fill="#0E0F10" transform="translate(435,515)"/>
<path d="M0 0 C5.78461538 3.44615385 5.78461538 3.44615385 6.875 6.25 C6.936875 7.11625 6.936875 7.11625 7 8 C3.64379729 6.61122646 1.92701272 5.08322035 0 2 C0 1.34 0 0.68 0 0 Z " fill="#111013" transform="translate(519,522)"/>
<path d="M0 0 C3.82097239 0.53069061 6.06171403 1.49701566 9 4 C8.34 4 7.68 4 7 4 C6.67 4.66 6.34 5.32 6 6 C4 4.625 4 4.625 2 3 C2 2.34 2 1.68 2 1 C1.34 0.67 0.68 0.34 0 0 Z " fill="#262528" transform="translate(489,222)"/>
<path d="M0 0 C0.66 0.99 1.32 1.98 2 3 C1.34 3 0.68 3 0 3 C0 4.65 0 6.3 0 8 C-0.99 8.495 -0.99 8.495 -2 9 C-2.6875 7.3125 -2.6875 7.3125 -3 5 C-1.5625 2.25 -1.5625 2.25 0 0 Z " fill="#252526" transform="translate(392,504)"/>
<path d="M0 0 C2.00720923 0.28674418 4.0085944 0.61866701 6 1 C4.35 2.32 2.7 3.64 1 5 C0.34 3.68 -0.32 2.36 -1 1 C-0.67 0.67 -0.34 0.34 0 0 Z " fill="#2D2D2F" transform="translate(428,345)"/>
<path d="M0 0 C0.99 0.33 1.98 0.66 3 1 C-0.5 5.875 -0.5 5.875 -5 7 C-3.35 4.69 -1.7 2.38 0 0 Z " fill="#212124" transform="translate(398,215)"/>
<path d="M0 0 C0.99 0.33 1.98 0.66 3 1 C1.71475739 1.86380259 0.42157581 2.71580369 -0.875 3.5625 C-1.59429687 4.03816406 -2.31359375 4.51382813 -3.0546875 5.00390625 C-3.69664062 5.33261719 -4.33859375 5.66132812 -5 6 C-5.66 5.67 -6.32 5.34 -7 5 C-2.25 1.125 -2.25 1.125 0 0 Z " fill="#0D0D0F" transform="translate(315,88)"/>
</svg>
